<svg width="233" height="258" viewBox="0 0 233 258" fill="none" xmlns="http://www.w3.org/2000/svg">
<path d="M11.7386 186.181C41.7384 162.681 41.7385 133.181 41.7385 133.181C44.2384 116.681 35.2384 83.6809 49.8272 66.1809C63.7384 39.1809 84.7384 26.1809 104.739 24.1809C112.08 -14.5758 125.738 -0.81912 127.738 24.1809C169.738 28.9808 187.238 70.1809 190.738 90.1809V133.181C201.238 180.681 209.238 167.681 219.238 186.181C227.238 200.981 217.238 210.348 211.238 213.181H21.2384C6.83838 205.581 8.9052 192.014 11.7386 186.181Z" fill="#040404" fill-opacity="0.8"/>
<path d="M115.738 257.681C94.5385 260.081 81.2385 238.348 77.2385 227.181H154.738C150.572 236.348 136.938 255.281 115.738 257.681Z" fill="#040404" fill-opacity="0.8"/>
<path d="M2.73846 115.181C-9.26154 75.5809 21.0718 30.0142 37.7385 12.1809C61.7384 6.98088 55.7976 22.0142 49.8272 30.1809C18.6982 70.5809 17.7975 100.014 21.2384 109.681C10.8383 120.881 4.57172 118.014 2.73846 115.181Z" fill="#040404" fill-opacity="0.8"/>
<path d="M183.739 32.1809C175.739 27.6809 171.5 17.5 179.5 12.5C182.761 10.8191 194.739 13.0142 197.239 16.6809C218.239 32.1809 229.656 73.6081 230.239 78.1809C232 92 232.905 101.348 232.739 111.181C224.339 122.381 215.905 115.848 212.739 111.181C215.539 95.5809 204.477 66.3618 202.239 61.1809C200 56 190.072 40.1809 183.739 32.1809Z" fill="#040404" fill-opacity="0.8"/>
</svg>
