<?xml version="1.0" encoding="utf-8"?>
<!-- Generator: Adobe Illustrator 21.0.0, SVG Export Plug-In . SVG Version: 6.00 Build 0)  -->
<svg version="1.1" id="Слой_1" xmlns="http://www.w3.org/2000/svg" xmlns:xlink="http://www.w3.org/1999/xlink" x="0px" y="0px"
	 viewBox="0 0 56 56" style="enable-background:new 0 0 56 56;" xml:space="preserve">
<style type="text/css">
	.st0{fill:#DB2B2D;}
</style>
<path class="st0" d="M48.1,0H7.8C6.6,0,5.6,1,5.6,2.2v51.7c0,1.2,1,2.2,2.2,2.2h40.5c1.2,0,2.2-1,2.2-2.2V2.2C50.3,1,49.3,0,48.1,0z
	 M39.9,35.8c-1.2,0-2.2,1-2.2,2.2v0.5h-3.3v-0.5c0-1.2-1-2.2-2.2-2.2c-1.2,0-2.2,1-2.2,2.2v0.5H18.2v-0.5c0-1.2-1-2.2-2.2-2.2
	s-2.2,1-2.2,2.2v0.5H9.9v-8.7h3.9v0.5c0,1.2,1,2.2,2.2,2.2s2.2-1,2.2-2.2v-0.5h2.1v0.5c0,1.2,1,2.2,2.2,2.2s2.2-1,2.2-2.2v-0.5h13
	v0.5c0,1.2,1,2.2,2.2,2.2c1.2,0,2.2-1,2.2-2.2v-0.5h3.9v8.7H42v-0.5C42,36.8,41,35.8,39.9,35.8z M16,18.5c1.2,0,2.2-1,2.2-2.2v-0.5
	h2.1v0.5c0,1.2,1,2.2,2.2,2.2s2.2-1,2.2-2.2v-0.5h2.2v0.5c0,1.2,1,2.2,2.2,2.2c1.2,0,2.2-1,2.2-2.2v-0.5h14.8v9.8H42V25
	c0-1.2-1-2.2-2.2-2.2c-1.2,0-2.2,1-2.2,2.2v0.5h-13V25c0-1.2-1-2.2-2.2-2.2s-2.2,1-2.2,2.2v0.5h-2.1V25c0-1.2-1-2.2-2.2-2.2
	s-2.2,1-2.2,2.2v0.5H9.9v-9.8h3.9v0.5C13.9,17.5,14.8,18.5,16,18.5z M45.9,4.3v7.1H31.2v-0.5c0-1.2-1-2.2-2.2-2.2
	c-1.2,0-2.2,1-2.2,2.2v0.5h-2.2v-0.5c0-1.2-1-2.2-2.2-2.2s-2.2,1-2.2,2.2v0.5h-2.1v-0.5c0-1.2-1-2.2-2.2-2.2s-2.2,1-2.2,2.2v0.5H9.9
	V4.3H45.9z M9.9,51.5v-8.7h3.9v0.5c0,1.2,1,2.2,2.2,2.2s2.2-1,2.2-2.2v-0.5h11.9v0.5c0,1.2,1,2.2,2.2,2.2c1.2,0,2.2-1,2.2-2.2v-0.5
	h3.3v0.5c0,1.2,1,2.2,2.2,2.2c1.2,0,2.2-1,2.2-2.2v-0.5h3.9v8.7H9.9z"/>
</svg>
