<svg width="168" height="218" viewBox="0 0 168 218" fill="none" xmlns="http://www.w3.org/2000/svg">
<path d="M45.9348 212.705C41.8236 211.269 38.9656 205.079 38.446 196.475C38.2167 192.761 38.4001 185.501 38.7822 182.689C39.1796 179.816 39.6534 177.309 39.9437 176.637C40.066 176.362 40.2036 175.858 40.2494 175.491C40.3717 174.635 40.8302 172.969 41.2275 171.93C41.3957 171.471 41.5332 170.921 41.5332 170.722C41.5332 170.524 41.5943 170.325 41.6708 170.264C41.7472 170.218 41.9 169.928 41.9917 169.607C42.2515 168.797 43.3366 166.092 43.6881 165.419C43.841 165.113 43.9785 164.777 43.9785 164.686C43.9785 164.349 46.1946 160.055 46.974 158.893C47.2186 158.526 47.4937 158.114 47.5701 157.976C47.6618 157.823 47.9369 157.441 48.1814 157.12C48.6246 156.54 49.0678 155.913 49.4041 155.378C49.8931 154.599 50.3975 153.865 50.6573 153.605C50.8101 153.422 51.1769 152.979 51.4673 152.612C52.1856 151.68 53.0262 150.778 55.3645 148.409C57.9015 145.857 60.7595 143.136 60.9123 143.136C60.9734 143.136 61.1874 142.983 61.4014 142.785C62.5629 141.73 64.6414 140.232 65.3292 139.927C65.7724 139.743 66.2156 139.499 66.3073 139.377C66.5365 139.101 66.3531 138.444 66.0169 138.337C65.8793 138.276 65.375 137.879 64.9165 137.436C64.458 137.008 63.8314 136.457 63.541 136.244C62.7921 135.678 60.7442 133.63 60.2398 132.942C60.0106 132.621 59.491 132.025 59.0936 131.597C58.681 131.185 58.1002 130.451 57.7792 129.977C55.609 126.768 54.4322 124.98 54.2794 124.72C54.1877 124.552 54.0349 124.277 53.9432 124.109C53.6069 123.528 51.9258 119.875 51.9258 119.738C51.9258 119.661 51.7882 119.325 51.6354 119.019C51.0852 117.934 49.511 113.105 49.2665 111.729C49.1442 110.965 48.8844 109.742 48.7163 108.978C48.1814 106.701 48.1203 106.273 48.1203 104.989C48.105 103.385 47.9216 103.232 46.2557 103.339C45.247 103.415 44.2383 103.324 42.8323 103.018C41.8389 102.804 39.5617 101.658 38.8586 101.016C38.5683 100.756 38.0333 100.282 37.636 99.9765C36.933 99.3957 36.0312 98.1883 35.4352 97.0268C35.1601 96.4766 35.1143 96.1251 35.1143 94.5357C35.1143 92.8087 35.1448 92.6253 35.5728 91.7083C35.8326 91.1734 36.0312 90.6843 36.0312 90.6384C36.0312 90.4398 36.7954 89.5228 37.8652 88.4224C39.8368 86.4203 41.5332 85.8395 45.7361 85.7937C48.3342 85.7478 56.1134 85.9465 56.4802 86.0535C56.6177 86.1146 56.6636 87.3373 56.6636 91.5096C56.6636 96.3544 56.6941 96.9504 56.9387 97.3936C57.0762 97.6534 57.3666 98.1731 57.5653 98.5246C57.764 98.8914 58.2836 99.5638 58.7115 100.038C59.1547 100.496 59.6744 101.123 59.9036 101.413C60.194 101.81 60.6219 102.086 61.5695 102.483L62.8533 103.018L76.6387 103.064C90.2102 103.094 90.4395 103.094 91.6163 102.789C94.0616 102.131 94.841 101.413 96.4305 98.3565C97.6531 96.0334 97.9282 94.8719 97.9282 92.1515V90.2564H98.3562C98.9522 90.2564 99.105 90.6232 99.3037 92.5488C99.533 94.6732 99.6094 99.3499 99.6552 116.131L99.7164 130.146H99.3648C98.6771 130.146 95.2231 129.656 94.3519 129.442C93.5419 129.229 92.304 128.785 89.3696 127.654C88.9111 127.486 88.1164 127.089 87.6121 126.798C87.1077 126.508 86.3283 126.08 85.8851 125.82C85.4418 125.576 84.6777 124.98 84.1886 124.506C83.7148 124.032 82.8743 123.268 82.3241 122.794C81.4529 122.03 81.2237 121.724 80.3678 119.997C79.5731 118.393 79.2674 117.95 78.5491 117.292C77.0819 115.993 75.4925 115.642 73.2764 116.177C72.4053 116.391 72.2066 116.513 71.9468 116.926C71.7787 117.201 71.6411 117.537 71.6411 117.674C71.6411 118.163 72.2524 119.142 73.1694 120.089C73.6738 120.624 74.606 121.831 75.2479 122.794C76.0121 123.956 76.868 124.995 77.8002 125.897C78.5797 126.646 79.9705 127.991 80.8875 128.892C81.9267 129.901 82.9201 130.726 83.4856 131.032C85.3196 132.01 88.85 133.676 89.5989 133.905C90.0268 134.043 90.6687 134.257 91.0508 134.379C93.4655 135.189 95.0703 135.464 98.7535 135.739L100.098 135.831L100.007 136.457C99.9456 136.809 99.915 144.833 99.915 154.293C99.915 163.753 99.8845 171.716 99.8233 171.991C99.7469 172.388 99.6399 172.48 99.319 172.495C98.9369 172.511 98.9369 172.526 99.3801 172.633C99.7011 172.709 99.4565 172.755 98.5243 172.77C97.3016 172.786 95.7122 172.511 94.1074 172.006C93.3585 171.777 90.5923 170.447 90.5923 170.325C90.5923 170.264 90.2102 170.035 89.7364 169.79C89.2779 169.561 88.8194 169.225 88.7277 169.057C88.636 168.873 87.9789 168.17 87.2453 167.467C86.5269 166.779 85.6711 165.954 85.3349 165.633C85.0139 165.327 84.479 164.517 84.1428 163.845C83.8218 163.173 83.4245 162.378 83.2716 162.087C82.538 160.727 81.7892 158.557 81.5752 157.197C81.4682 156.57 81.3307 155.898 81.2543 155.699C81.1778 155.5 81.1167 155.118 81.1167 154.858C81.1167 154.583 81.0556 154.293 80.9791 154.217C80.9027 154.125 80.7958 153.514 80.7652 152.841C80.7611 152.765 80.7542 152.689 80.7448 152.612C80.2611 148.677 72.9357 143.478 73.3987 147.645C73.5821 149.219 73.5974 150.044 73.4751 151.328C73.2458 153.712 72.8485 156.02 72.3594 157.732C72.1149 158.588 71.0909 160.712 70.9075 160.712C70.8464 160.712 70.4643 161.033 70.0364 161.4C69.6237 161.766 69.0735 162.179 68.8137 162.286C68.5692 162.408 68.019 162.668 67.5911 162.867C67.1784 163.066 66.4143 163.631 65.8946 164.151C64.8401 165.205 64.2899 165.603 63.862 165.603C63.7091 165.603 63.2201 165.847 62.7921 166.137C62.3642 166.428 61.9516 166.672 61.8751 166.672C61.6306 166.672 60.6372 167.605 60.6372 167.834C60.6372 167.956 60.5914 168.048 60.5149 168.048C60.3315 168.048 59.0478 171.089 58.9102 171.869C58.8644 172.113 58.8338 171.991 58.8185 171.563L58.7879 170.875L58.4059 171.945C58.1919 172.541 57.9626 173.321 57.871 173.703C57.7945 174.085 57.6111 174.635 57.4736 174.925C57.336 175.216 57.0915 176.117 56.954 176.912C56.8164 177.707 56.6177 178.746 56.5107 179.205C55.8841 182.231 55.8688 182.445 55.7924 191.966C55.7619 197.101 55.6702 201.594 55.5938 201.977C54.6462 207.142 54.0196 208.457 51.1005 211.391C50.1835 212.308 49.7403 212.553 48.3954 212.889C47.1727 213.194 47.3561 213.194 45.9348 212.705Z" fill="#FF1616"/>
<path d="M97.8433 83.165C97.7669 83.058 97.3542 82.248 96.9263 81.3615C96.1927 79.8179 96.101 79.7109 94.9089 78.7787C92.647 77.0058 94.2364 77.1587 77.8681 77.1587C61.6068 77.1587 63.0587 77.0364 60.7051 78.6106C59.6811 79.3136 59.3449 79.6498 58.703 80.6279C58.2751 81.2851 57.9235 81.9423 57.9235 82.0951C57.9235 82.2632 57.8319 82.4619 57.7249 82.5536C57.6026 82.6606 56.166 82.7217 53.7971 82.7523C50.3736 82.7829 50.0527 82.7523 50.0069 82.5231C49.6676 81.0304 51.1315 78.013 51.7797 76.5932C55.4949 68.825 59.5662 61.8435 66.1765 56.0831C73.7804 49.6958 82.3681 46.1938 91.7758 43.2147C95.0121 42.2066 95.5 42 99 42L100.793 57.3211C100.732 57.7337 100.701 63.6025 100.717 70.3729C100.732 77.1434 100.701 82.8287 100.655 83.0121C100.548 83.3178 100.441 83.3484 99.2799 83.3484C98.4393 83.3484 97.9503 83.2872 97.8433 83.165Z" fill="#FF1616"/>
<path d="M151.389 213.042C150.885 212.889 150.533 212.644 150.243 212.277C149.081 210.78 148.118 209.649 147.69 209.236C146.727 208.35 145.474 206.271 144.909 204.666C144.19 202.649 144.114 201.564 144.007 192.042C143.961 188.298 143.87 184.798 143.793 184.248C143.701 183.698 143.564 182.399 143.472 181.344C143.289 179.205 143.09 178.013 142.784 177.218C142.677 176.927 142.509 176.026 142.418 175.246C142.311 174.452 142.097 173.428 141.929 172.954C141.76 172.48 141.577 171.899 141.546 171.639C141.256 169.897 141.134 169.591 140.293 168.354C139.33 166.963 138.537 167.998 136 166.5C135.205 166.026 133.882 165.343 133.5 165.037C127.998 168.421 121.041 148.045 119.5 173.5C119.5 173.5 118.5 177.218 99 177.5C99 177.5 99 173.5 99 172C99 170.5 99.3954 154.537 99.3954 154.537C99.4107 144.756 99.4565 136.564 99.5177 136.35L99.6094 135.953H101.902C104.653 135.953 106.93 135.632 110.995 134.685C112.677 134.287 115 133.263 117.766 131.704C120.456 130.191 125.591 125.255 127.532 122.336C127.837 121.877 128.342 121.174 128.647 120.746C129.396 119.753 130.481 117.674 130.481 117.262C130.466 116.467 130.436 116.467 126.783 116.513C124.903 116.528 123.252 116.589 123.1 116.635C122.702 116.757 121.801 118.163 120.685 120.38C120.074 121.587 118.775 123.176 117.735 123.971C117.384 124.231 117.017 124.628 116.895 124.842C116.635 125.331 115.565 126.004 112.906 127.303C108.611 129.427 107.251 129.763 102.559 129.932L99.3496 130.039L99.2579 128.602C99.212 127.807 99.1662 120.456 99.1509 112.264C99.1356 99.411 99.0439 94.6273 98.7688 92.7017C98.7382 92.4877 98.7077 92.0751 98.7077 91.7694C98.6924 91.4637 98.5701 91.0969 98.3867 90.8982C98.1116 90.6079 98.0811 90.3633 98.0811 88.4988V86.4355H101.902H105.723V91.1428C105.738 94.4134 105.799 96.1862 105.937 96.981C106.227 98.5857 106.945 99.9153 108.153 101.123C109.238 102.193 110.201 102.666 111.928 102.941C112.401 103.018 118.79 103.094 126.11 103.094L139.422 103.11L140.568 102.712C141.898 102.254 142.739 101.719 143.151 101.046C143.319 100.786 143.701 100.328 143.992 100.053C144.297 99.7625 144.542 99.411 144.542 99.2887C144.557 99.0595 144.848 98.4176 145.551 97.1338C145.81 96.6447 145.841 96.1404 145.917 91.479L145.994 86.3591L151.802 86.2521C161.323 86.0535 161.048 86.0382 162.622 86.8482C164.578 87.8263 166.275 89.5533 166.962 91.265C167.925 93.6492 167.956 95.6055 167.069 97.5617C166.382 99.09 166.091 99.4568 164.777 100.466C162.805 101.963 162.286 102.3 161.384 102.651C160.589 102.972 160.284 103.003 157.976 102.972C155.821 102.941 155.408 102.972 155.24 103.171C155.103 103.323 155.011 103.996 154.98 104.974C154.904 107.114 154.858 107.496 154.415 109.59C153.911 111.897 152.199 116.91 151.419 118.377C151.251 118.668 150.716 119.784 150.197 120.869C149.011 123.383 147.331 126.198 145.704 128.495C145.199 129.183 144.588 130.069 144.343 130.451C144.083 130.833 143.61 131.475 143.273 131.873C142.937 132.27 142.418 133.003 142.097 133.477C141.791 133.966 141.333 134.517 141.088 134.7C139.392 136.03 138.398 136.855 137.726 137.543C137.298 137.971 136.579 138.643 136.121 139.04C135.173 139.866 135.189 140.003 136.304 140.767C137.007 141.241 138.841 142.678 140.645 144.16C142.081 145.337 146.926 150.182 147.721 151.236C148.072 151.695 148.653 152.428 149.02 152.856C150.304 154.4 153.131 158.496 153.941 159.978C155.943 163.616 157.563 167.039 158.22 169.041C158.404 169.622 158.725 170.493 158.908 170.952C159.092 171.41 159.336 172.128 159.443 172.556C159.565 172.969 159.81 173.733 159.978 174.238C160.971 177.08 161.308 178.945 162.133 186.235C162.332 187.947 162.24 194.045 161.98 196.627C161.109 205.232 158.419 210.703 153.911 213.042C153.315 213.332 152.352 213.347 151.389 213.042Z" fill="#FF1616"/>
<path d="M153.697 83.4553C153.651 83.4095 152.734 83.3636 151.649 83.3484C150.548 83.3331 149.081 83.2566 148.363 83.1802C147.644 83.1038 146.758 83.0274 146.376 83.0121C145.627 82.9815 145.642 83.0121 144.863 81.1476C144.083 79.3136 142.632 77.9687 140.568 77.1281L139.712 76.7919H126.202C113.67 76.8071 112.6 76.8224 111.607 77.0822C109.773 77.556 108.642 78.259 107.465 79.6804C107.022 80.2306 106.563 80.9183 106.487 81.224C106.395 81.5144 106.166 82.0798 105.998 82.4925L105.677 83.2108H102.574H99.4718L99.6399 82.737C99.7622 82.3855 99.7774 78.7175 99.7163 70.0367C99.6552 61.8296 98.8929 42.2365 98.9999 41.9309C110 41 113.034 42.1013 117.078 43.719C125.134 45.7331 134.648 52.7153 140.339 58.9105C140.752 59.369 141.546 60.1943 142.097 60.7445C143.793 62.4562 145.642 64.9168 147.171 67.5455C147.446 68.0193 147.751 68.5236 147.828 68.6612C147.92 68.814 148.164 69.1655 148.378 69.4559C149.157 70.4799 151.267 75.0648 152.26 77.8617C153.208 80.5515 153.421 81.1476 153.804 81.9423C154.216 82.8134 154.277 83.5165 153.972 83.5165C153.849 83.5165 153.727 83.4859 153.697 83.4553Z" fill="#FF1616"/>
<path d="M32.2104 66.873C32.2104 66.6285 32.3174 66.5674 32.7454 66.5674C33.3567 66.5674 33.4942 66.9342 32.944 67.087C32.3633 67.2398 32.2104 67.194 32.2104 66.873Z" fill="#FFDF00"/>
<path d="M13.3663 60.8362C12.9537 60.7292 12.5104 60.5305 12.3576 60.393C12.2048 60.2554 12.0214 60.1484 11.9297 60.1484C11.7157 60.1484 11.028 58.7118 10.8293 57.856C10.4931 56.3888 10.707 54.5548 11.3336 53.6531C11.6393 53.1946 13.9929 50.9021 14.7571 50.306C14.9863 50.1379 15.3837 49.8017 15.6282 49.5725C15.888 49.3432 16.1631 49.1445 16.2701 49.1445C16.3618 49.1445 16.4688 49.0834 16.4994 49.007C16.5452 48.8694 17.2177 48.4415 18.1194 47.9677C18.5779 47.7232 18.7918 47.3105 18.4556 47.3105C18.3792 47.3105 18.3028 47.2188 18.3028 47.1119C18.3028 47.0049 17.9665 46.5617 17.5386 46.1337C16.7133 45.2779 16.3924 44.8041 15.6894 43.3369C15.1544 42.2518 15.0016 41.9461 14.8029 41.5488C14.2833 40.4942 14.0235 39.8065 14.0235 39.4091C14.0235 39.1646 13.9624 38.9048 13.8859 38.8284C13.6108 38.538 13.1523 35.3896 13.0912 33.3264C13.0454 32.1496 13.6414 29.5973 14.4056 27.748C14.6042 27.2896 14.8029 26.7088 14.8641 26.4643C15.078 25.5167 16.7439 22.3989 17.3858 21.757C17.7373 21.3902 18.1194 20.9165 18.2416 20.6872C18.3486 20.4732 18.7001 20.0759 19.0211 19.8161C19.3726 19.5257 19.5407 19.2964 19.449 19.2047C19.3573 19.1283 18.8224 18.8838 18.2569 18.6698C17.6762 18.4406 17.0037 18.0585 16.7439 17.7987C16.4841 17.5541 16.1784 17.3555 16.0714 17.3555C15.9492 17.3555 15.8575 17.2943 15.8575 17.2179C15.8575 17.1415 15.6588 17.004 15.4143 16.897C15.1697 16.8053 14.8488 16.576 14.6807 16.3926C14.5125 16.2092 14.2222 15.9494 14.0235 15.8271C13.5039 15.4909 11.5782 13.5194 11.5782 13.3207C11.5782 13.229 11.4712 12.9539 11.3184 12.6941C11.1655 12.419 11.0433 11.7312 10.9974 10.906C10.9363 9.74443 10.9668 9.48462 11.2572 8.93442C11.6546 8.18554 12.0367 7.83403 12.8772 7.43667C14.161 6.82534 14.7265 6.73364 15.8269 6.96289C16.912 7.17685 18.5626 7.97158 19.2656 8.62876C19.8922 9.20952 20.5647 10.3252 20.8398 11.2575C20.9773 11.7007 21.3594 12.6177 21.6957 13.2749C22.4292 14.6962 22.6585 16.1939 22.2153 16.6219C21.8791 16.9734 21.9096 17.3555 22.2764 17.3555C22.4445 17.3555 22.5821 17.2791 22.5821 17.1874C22.5821 17.1109 22.8419 16.9275 23.1628 16.8053C23.4685 16.6677 24.2174 16.3315 24.8287 16.0411C25.44 15.7507 26.0208 15.5215 26.1431 15.5215C26.25 15.5215 26.9378 15.3228 27.6714 15.0783C28.405 14.8185 29.001 14.6656 29.001 14.7115C29.001 14.7573 29.108 14.7115 29.2303 14.6045C29.3984 14.4669 29.4442 14.2377 29.3678 13.7028C29.2303 12.6024 29.0316 11.7618 28.6801 10.8907C27.5797 8.09385 27.488 3.69228 28.512 1.96528C29.1997 0.81904 30.7127 0.161865 32.669 0.177148C33.479 0.192431 35.0837 0.910741 35.3283 1.38452C35.42 1.55264 35.5422 1.72075 35.5881 1.7666C35.909 2.0417 36.0619 2.79058 36.1383 4.67041C36.2453 7.13101 36.0619 8.56763 35.4047 10.478C34.7628 12.3273 34.3654 13.8403 34.3501 14.3905C34.3501 14.7879 34.4266 14.8949 34.7322 14.9713C34.9462 15.0324 35.1907 15.0324 35.2824 14.9713C35.5422 14.8185 36.1841 15.0477 36.1841 15.2922C36.1841 15.4604 35.9854 15.5215 35.42 15.5215C34.8545 15.5215 34.6558 15.5826 34.6558 15.7354C34.6558 16.1175 34.0139 16.4385 33.2803 16.4385H32.5926L32.562 33.2958C32.5314 42.5575 32.4703 50.9021 32.4092 51.8191L32.2869 53.5002L31.4769 53.5461C30.942 53.5767 30.6363 53.6684 30.5752 53.8212C30.5293 53.9282 30.3612 54.0352 30.2084 54.0352C29.9944 54.0352 29.918 53.9282 29.918 53.6072C29.918 53.1182 29.4595 52.8125 28.6954 52.8125C28.4508 52.8125 27.9465 52.7208 27.595 52.5985C27.2282 52.4763 26.6933 52.3387 26.4029 52.2776C26.1125 52.2165 25.6234 52.0483 25.3331 51.8955C24.4313 51.4523 23.6519 51.1313 23.4532 51.1313C23.224 51.1466 21.9707 52.7666 21.9707 53.057C21.9707 53.378 20.7175 55.8539 20.1368 56.7097C19.8464 57.1376 19.2351 57.8407 18.7918 58.2839C18.3486 58.7271 17.8901 59.262 17.7526 59.4607C17.4316 59.9498 15.5671 60.8973 14.7571 60.989C14.4056 61.0196 13.7637 60.9584 13.3663 60.8362Z" fill="#FF1616"/>
<path d="M5.31203 46.4088C5.18977 46.3324 4.67014 46.2407 4.16579 46.1949C2.92785 46.0879 1.94973 45.6141 1.21613 44.7888C0.681222 44.1775 0.604806 43.9941 0.52839 43.0771C0.421408 41.9461 0.558954 41.0903 0.941034 40.5095C1.07858 40.3108 1.18557 40.0663 1.18557 39.9746C1.18557 39.8371 1.55236 39.3174 1.87331 39.0423C2.9737 38.0489 3.66144 37.7586 5.52599 37.5293C6.36657 37.4376 7.22243 37.2848 7.4364 37.2084C7.65036 37.1167 8.53678 37.0555 9.40793 37.0555C11.2113 37.0555 11.5629 37.1931 12.6938 38.2323C13.3663 38.8589 13.3663 38.8895 13.4427 40.0663C13.5344 41.5182 13.2899 42.5116 12.648 43.2452C12.3882 43.5203 12.1895 43.826 12.1895 43.8871C12.1895 44.1469 10.8751 45.4766 10.6306 45.4766C10.493 45.4766 10.3555 45.5683 10.3096 45.6905C10.1568 46.0879 8.32282 46.5464 6.8862 46.5464C6.15261 46.5464 5.4343 46.4853 5.31203 46.4088Z" fill="#FF1616"/>
<path d="M7.17656 29.4292C6.56524 29.2764 5.46485 29.1083 4.73125 29.0471C3.08067 28.9249 2.05669 28.4664 1.27725 27.5341C0.589503 26.6782 0.421387 26.2503 0.421387 25.2263C0.421387 23.698 0.696485 22.9186 1.58291 22.0168C2.45405 21.1304 3.09595 20.7789 4.79238 20.2746C6.13731 19.8772 8.1394 19.8314 8.94941 20.1981C10.0192 20.6566 10.2791 20.8553 11.7615 22.3378C13.0759 23.6522 13.2898 23.9425 13.5802 24.7984C13.9317 25.8682 13.9165 26.4795 13.4885 27.5952C13.1523 28.4816 13.0759 28.5733 12.0519 29.1388C11.2877 29.582 11.0432 29.6279 9.74414 29.6737C8.70488 29.7043 7.97129 29.6432 7.17656 29.4292Z" fill="#FF1616"/>
<path d="M59.0325 217.306C58.9714 216.985 58.8949 206.378 58.8491 193.739C58.8032 176.117 58.8338 170.631 58.9714 170.279C59.8731 167.971 60.6067 166.825 61.4931 166.367C61.9057 166.153 62.4559 165.832 62.7005 165.648C62.9603 165.465 63.4188 165.282 63.7244 165.22C64.1524 165.144 64.5192 164.869 65.2528 164.105C65.9864 163.341 66.5518 162.943 67.6675 162.378C69.6238 161.384 70.5102 160.62 71.2285 159.321C71.8857 158.098 72.1608 157.334 72.497 155.592C73.2153 151.939 73.3834 149.907 73.1083 147.798C72.9861 146.85 72.7568 145.795 72.6193 145.444C72.4817 145.092 72.4053 144.772 72.4359 144.726C72.5734 144.588 74.438 145.291 75.1563 145.75C75.5384 145.979 76.3331 146.285 76.9138 146.422C78.0295 146.667 79.1299 147.079 79.1299 147.263C79.1299 147.309 79.4356 147.721 79.8177 148.164C80.1997 148.608 80.5054 149.081 80.5054 149.234C80.5054 149.372 80.6124 149.907 80.7499 150.396C80.8875 150.9 81.0556 151.863 81.132 152.535C81.1931 153.208 81.3154 154.11 81.4071 154.522C81.4988 154.95 81.6364 155.668 81.7128 156.127C82.1407 158.572 82.4311 159.398 83.9594 162.5C85.0445 164.716 85.1668 164.899 86.3589 166.015C87.0466 166.672 88.0553 167.666 88.6055 168.247C89.1557 168.812 89.8129 169.393 90.088 169.546C90.3478 169.683 90.9285 170.004 91.387 170.249C91.8303 170.493 92.3652 170.799 92.5791 170.936C93.0682 171.257 94.4284 171.792 95.3301 171.991C97.1488 172.419 97.5003 172.48 98.0505 172.48C98.3867 172.48 98.8605 172.526 99.1051 172.572L99.5636 172.663L99.7011 187.274C99.7775 195.328 99.8234 205.324 99.7928 209.496L99.7622 217.107L100.098 217.183C100.297 217.229 108.55 217.26 118.454 217.229C134.929 217.183 136.442 217.199 136.442 217.428C136.442 217.611 136.243 217.703 135.739 217.779C135.342 217.825 117.949 217.871 97.0877 217.871H59.1395L59.0325 217.306Z" fill="#D70505"/>
<path d="M30.9128 66.9003C30.5766 66.7322 30.2709 66.5335 30.2251 66.4724C30.1639 66.4112 29.8277 66.1056 29.4456 65.7999C29.033 65.4637 28.5439 64.8523 28.2383 64.2869L27.7186 63.324L27.795 61.3372C27.8562 59.7019 27.9479 59.0906 28.2994 58.036C28.5286 57.3177 28.7884 56.6758 28.8496 56.5994C28.926 56.5077 28.9871 56.3549 28.9871 56.2479C28.9871 56.1256 29.2622 55.6213 29.5985 55.1169C29.9347 54.6126 30.2098 54.093 30.2098 53.9707C30.2098 53.3747 30.5155 53.1454 31.2796 53.1454C31.6923 53.1454 32.0591 53.0843 32.1049 53.0078C32.2883 52.7327 32.38 46.3597 32.4564 31.3668C32.487 22.793 32.5634 15.778 32.6245 15.778C32.6857 15.778 32.9608 15.8391 33.2359 15.9155C33.8013 16.0531 34.4891 15.7168 34.4891 15.3195C34.4891 15.1514 34.6725 15.0902 35.1004 15.0749C35.4366 15.0597 35.8034 15.0444 35.9104 15.0291C36.1244 15.0138 36.9497 15.2583 39.9452 16.2212C41.1373 16.6033 42.2224 16.9242 42.3447 16.9242C42.4975 16.9242 42.6503 16.4199 42.8948 15.0597C43.0782 14.0204 43.2769 13.0728 43.3381 12.9506C43.4145 12.813 43.5215 12.4768 43.5826 12.2017C43.9035 10.7039 44.9886 9.5577 47.5257 8.02938C49.4361 6.86786 49.8334 6.79144 51.1783 7.29579C52.0953 7.6473 53.2569 8.64071 53.6695 9.42015C53.8835 9.8328 53.914 10.169 53.8529 10.9026C53.7459 12.0489 53.4708 12.7519 52.7984 13.5772C52.1412 14.3872 51.1936 15.5487 50.8574 15.9308C50.5517 16.2823 49.0693 17.5661 48.4121 18.0399C48.1523 18.2233 47.5715 18.6512 47.113 18.9874C46.1349 19.6905 45.9515 20.042 46.3641 20.4241C46.624 20.6839 47.3575 21.5092 48.4426 22.8388C48.9776 23.496 50.1544 25.7732 50.5823 27.0111C50.7198 27.3932 50.9797 28.3866 51.1783 29.2272C51.484 30.5874 51.5299 31.1223 51.5146 33.965L51.4993 37.1745L50.8268 39.1613C50.2461 40.9341 49.6042 42.279 49.2832 42.4166C49.2068 42.4472 49.161 42.6 49.161 42.7528C49.161 43.089 48.5649 44.1894 47.8466 45.2134C47.5562 45.5955 47.327 46.0387 47.327 46.1763C47.327 46.3138 47.0213 46.7417 46.6392 47.1238C45.6305 48.1172 45.6917 48.3312 47.1436 48.8814C47.8313 49.1412 48.3968 49.508 49.054 50.1346C49.5736 50.6084 50.2614 51.1891 50.567 51.4031C50.8727 51.6171 51.2548 51.9839 51.3923 52.2131C51.5299 52.4271 51.9119 52.9314 52.2482 53.3135C53.1193 54.3833 53.8988 56.0492 53.8988 56.8898C53.8988 57.2719 53.8376 57.6998 53.7612 57.8526C53.6848 57.9902 53.4403 58.4792 53.211 58.9377C52.7525 59.87 52.3246 60.3438 51.6063 60.7106C50.5364 61.2608 48.4579 61.1385 47.7549 60.4813C47.5715 60.3132 47.1436 59.9923 46.8073 59.763C46.4558 59.5185 46.1196 59.2434 46.0279 59.1517C45.9515 59.0447 45.6458 58.6932 45.3707 58.3875C43.9494 56.7522 43.0171 54.582 42.635 51.9992C42.4363 50.6237 42.4516 50.6237 40.801 51.449C40.1439 51.7852 38.9212 52.2284 38.0806 52.4424C35.8646 53.0079 34.5349 53.4816 34.3515 53.8026C34.1834 54.0624 34.3057 54.4445 34.8712 55.4379C35.4519 56.4619 36.0174 57.8221 36.1702 58.6168C36.2619 59.0906 36.4453 59.8394 36.5676 60.2674C36.8427 61.2761 36.8427 62.1625 36.537 63.217C36.2314 64.2563 35.8951 64.944 35.4825 65.4178C35.3144 65.6165 35.1004 65.8916 35.024 66.0444C34.7336 66.5488 33.4804 67.0837 32.4564 67.1448C31.7228 67.2059 31.3713 67.1448 30.9128 66.9003Z" fill="#D70505"/>
<path d="M56.6497 46.2832C56.2676 46.1457 55.6257 45.9012 55.1978 45.7483C54.7851 45.5955 54.3266 45.4274 54.2044 45.3815C54.0821 45.3357 53.914 45.2898 53.8223 45.2745C53.5625 45.244 52.9359 44.8619 52.5844 44.5104C51.8202 43.7309 51.3617 42.1109 51.5451 40.7354C51.6215 40.17 51.7744 39.8643 52.2787 39.3447C52.89 38.7181 53.807 38.1679 54.2961 38.1679C54.4183 38.1679 54.7393 38.0609 54.9991 37.9233C55.7174 37.5565 58.499 37.3273 59.5382 37.5565C60.012 37.6482 60.5469 37.8316 60.7303 37.9539C60.9137 38.0762 61.1735 38.1679 61.3111 38.1679C62.2281 38.1679 64.1996 39.956 64.6428 41.1787C65.3 43.0279 64.5205 44.8466 62.6407 45.8095C62.2892 45.9929 61.8307 46.161 61.632 46.1763C61.4333 46.1763 61.2958 46.2374 61.3264 46.2832C61.5556 46.65 57.6584 46.65 56.6497 46.2832Z" fill="#D70505"/>
<path d="M55.0756 29.7315C53.2569 29.5176 52.3093 28.9674 51.591 27.6836C51.2089 26.9806 51.2242 26.7513 51.7591 25.6968C52.0037 25.2077 52.2176 24.7339 52.2176 24.6422C52.2176 24.5658 52.3552 24.3213 52.5233 24.1073C52.6914 23.8934 52.829 23.6183 52.829 23.496C52.829 23.3584 52.9665 23.1598 53.1346 23.0375C53.3027 22.9152 53.4403 22.7318 53.4403 22.6248C53.4403 22.3039 54.2962 21.5856 54.9992 21.2952C55.366 21.1424 55.7633 20.959 55.9162 20.8978C56.5122 20.5769 58.0711 20.2865 59.0951 20.2865C60.1496 20.2865 61.7544 20.6227 62.0753 20.9131C62.1517 20.9895 62.3351 21.0507 62.488 21.0507C62.9159 21.0507 64.2608 22.472 64.6734 23.3737C64.8874 23.8169 65.0555 24.3977 65.0555 24.6575C65.0555 25.4064 64.2302 27.0111 63.4966 27.7142C62.8089 28.3713 61.7391 28.9979 61.2806 28.9979C61.1277 28.9979 60.8832 29.1049 60.7151 29.2272C60.0885 29.701 57.0471 29.9761 55.0756 29.7315Z" fill="#D70505"/>
<path d="M99.4871 217.596C99.3342 217.489 99.3037 215.915 99.3342 209.909C99.3648 205.752 99.3189 195.68 99.2425 187.519L99.105 172.663L100.694 172.572C102.574 172.449 103.644 172.266 104.851 171.853C105.325 171.701 105.814 171.563 105.937 171.563C106.044 171.563 106.227 171.456 106.334 171.334C106.441 171.211 106.624 171.104 106.762 171.104C106.884 171.104 107.694 170.722 108.535 170.249C110.048 169.408 111.989 167.757 112.554 166.81C112.676 166.596 113.166 166.153 113.624 165.817C114.51 165.19 115.122 164.38 115.764 163.004C116.895 160.59 117.154 159.963 117.338 159.336C117.43 158.954 117.582 158.496 117.659 158.297C117.735 158.098 117.796 157.793 117.796 157.594C117.796 157.395 117.903 156.998 118.026 156.692C118.148 156.402 118.194 156.127 118.148 156.066C118.087 156.02 118.133 155.821 118.224 155.623C118.316 155.439 118.423 154.981 118.469 154.599C118.759 151.985 119.172 150.365 119.646 150.09C119.737 150.029 120.104 149.509 120.471 148.944C120.838 148.378 121.311 147.782 121.541 147.614C121.755 147.461 122.183 147.156 122.488 146.926C122.794 146.682 123.161 146.499 123.314 146.499C123.482 146.499 123.971 146.315 124.414 146.101C125.086 145.765 126.783 145.413 126.829 145.597C126.829 145.627 126.905 147.309 126.982 149.326C127.15 154.171 127.302 155.607 127.685 156.356C127.853 156.692 128.189 157.594 128.418 158.374L128.846 159.764L130.466 161.048C131.353 161.766 132.331 162.5 132.621 162.699C132.911 162.913 133.4 163.279 133.691 163.539C133.981 163.799 135.021 164.487 135.983 165.068C138.795 166.749 139.636 167.421 140.14 168.43C140.308 168.766 140.538 169.148 140.66 169.271C140.767 169.408 140.966 169.912 141.103 170.417C141.302 171.211 141.332 173.978 141.332 193.418V215.517L140.95 216.297C140.217 217.764 142.219 217.642 119.554 217.688C108.626 217.703 99.594 217.657 99.4871 217.596Z" fill="#D70505"/>
<path d="M64.2593 100.802C62.7463 100.343 60.2704 98.28 60.0717 97.3019C59.9953 96.9962 59.9495 93.6645 59.9495 89.8743C59.9495 83.4553 59.9647 82.951 60.2398 82.2327C60.5149 81.5144 61.8904 79.8638 62.1961 79.8638C62.2878 79.8638 62.517 79.7262 62.731 79.5581C62.945 79.39 63.3271 79.2524 63.5716 79.2524C63.8161 79.2524 64.1676 79.176 64.351 79.069C64.8859 78.7939 90.5159 78.8856 91.0508 79.176C91.2647 79.283 91.6621 79.497 91.9372 79.6192C92.9153 80.0777 94.0616 81.6061 94.3367 82.8134C94.4589 83.3789 94.4437 95.8959 94.3214 96.981C94.2603 97.5159 94.1074 97.9438 93.8934 98.173C92.8848 99.2887 92.2123 99.8084 91.0813 100.343L89.8281 100.955L77.25 100.939C70.342 100.939 64.4886 100.863 64.2593 100.802Z" fill="black"/>
<path d="M112.508 100.588C111.622 100.359 110.766 99.7625 110.292 99.0595C110.078 98.7385 109.727 98.3717 109.528 98.2648C108.764 97.8674 108.642 96.9657 108.627 91.5554C108.611 88.8656 108.581 86.0535 108.55 85.2893C108.489 83.9444 108.795 82.3091 109.116 82.3091C109.177 82.3091 109.345 82.0798 109.482 81.82C109.834 81.1017 111.057 79.8791 111.683 79.6192C112.57 79.2372 113.701 79.2066 126.355 79.1455C135.876 79.0996 138.643 79.1302 139.117 79.283C140.14 79.604 141.378 80.5515 141.852 81.3615C141.944 81.5296 142.158 81.8506 142.326 82.0951C142.54 82.4008 142.662 82.8898 142.739 83.8374C142.861 85.488 142.739 96.874 142.586 97.2561C142.464 97.577 141.959 98.2495 141.119 99.2123C140.752 99.6249 140.4 99.8848 140.186 99.8848C140.003 99.8848 139.758 99.9917 139.651 100.114C139.544 100.236 139.346 100.343 139.208 100.343C139.071 100.343 138.765 100.45 138.52 100.573C138.154 100.771 136.411 100.802 125.606 100.786C116.941 100.771 112.936 100.71 112.508 100.588Z" fill="black"/>
<ellipse cx="118.5" cy="48.8551" rx="3.98384" ry="10.8992" transform="rotate(20.1853 118.5 48.8551)" fill="black"/>
<ellipse cx="3.98384" cy="10.8992" rx="3.98384" ry="10.8992" transform="matrix(-0.938581 0.345058 0.345058 0.938581 84.4783 38)" fill="black"/>
<ellipse cx="101.5" cy="44.5" rx="6.5" ry="12.5" fill="black"/>
</svg>
