<?xml version="1.0" encoding="utf-8"?>
<!-- Generator: Adobe Illustrator 21.0.0, SVG Export Plug-In . SVG Version: 6.00 Build 0)  -->
<svg version="1.1" id="Слой_1" xmlns="http://www.w3.org/2000/svg" xmlns:xlink="http://www.w3.org/1999/xlink" x="0px" y="0px"
	 viewBox="0 0 56 56" style="enable-background:new 0 0 56 56;" xml:space="preserve">
<style type="text/css">
	.st0{fill:#DB2B2D;}
</style>
<path class="st0" d="M38.6,1.4C37.7,0.5,36.5,0,35.1,0H10.7c-2.7,0-5,2.2-5,5v46c0,2.7,2.2,5,5,5h35c2.7,0,5-2.2,5-5V15.2
	c0-1.4-0.5-2.6-1.5-3.6C49.2,11.6,38.6,1.4,38.6,1.4z M45.6,15.2h-8.8c-0.9,0-1.6-0.7-1.6-1.6V5.2L45.6,15.2z M10.7,50.9v-46h19.6
	v8.6c0,3.6,3,6.6,6.6,6.6h8.8v30.9H10.7z"/>
<path class="st0" d="M33.1,24.5c-1-1-2.5-1-3.5,0l-14.2,14c-1,1-1,2.5,0,3.5c0.5,0.5,1.1,0.7,1.7,0.7c0.6,0,1.2-0.2,1.7-0.7
	l14.1-14.1C33.9,27,33.9,25.5,33.1,24.5z"/>
<ellipse class="st0" cx="31.4" cy="39.6" rx="3.2" ry="3.2"/>
<ellipse class="st0" cx="17.8" cy="26.5" rx="3.2" ry="3.2"/>
</svg>
