<?xml version="1.0" encoding="UTF-8" standalone="no"?>
<svg
   xmlns:dc="http://purl.org/dc/elements/1.1/"
   xmlns:cc="http://creativecommons.org/ns#"
   xmlns:rdf="http://www.w3.org/1999/02/22-rdf-syntax-ns#"
   xmlns:svg="http://www.w3.org/2000/svg"
   xmlns="http://www.w3.org/2000/svg"
   viewBox="0 0 545.53333 242.39999"
   height="242.39999"
   width="545.53333"
   xml:space="preserve"
   id="svg2"
   version="1.1"><metadata
     id="metadata8"><rdf:RDF><cc:Work
         rdf:about=""><dc:format>image/svg+xml</dc:format><dc:type
           rdf:resource="http://purl.org/dc/dcmitype/StillImage" /></cc:Work></rdf:RDF></metadata><defs
     id="defs6" /><g
     transform="matrix(1.3333333,0,0,-1.3333333,0,242.4)"
     id="g10"><g
       transform="scale(0.1)"
       id="g12"><path
         id="path14"
         style="fill:#e31d25;fill-opacity:1;fill-rule:nonzero;stroke:none"
         d="m 2897.69,1657.2 v -66.04 h 568.75 c 37.63,0 94.7,0 132.46,-38.09 37.77,-37.82 37.77,-94.61 37.77,-132.71 V 852.23 c 0,-37.671 0,-94.789 -37.77,-132.46 -37.76,-37.911 -94.83,-37.911 -132.46,-37.911 H 3191.7 c -47.4,0 -109.08,0 -132.7,52.2 -23.72,51.941 9.44,99.332 37.91,137.242 l 369.53,492.079 h -568.75 l -226.96,-302.92 c -37.96,-50.73 -70.98,-94.647 -70.98,-151.347 0,-56.883 30.39,-97.894 70.98,-151.672 l 57.02,-75.582 c 56.42,-75.711 113.45,-151.578 189.16,-189.449 75.95,-37.762 165.71,-37.762 288.97,-37.762 h 246.38 c 141.9,0 355.25,0 497.15,141.872 142.05,142.171 142.05,350.418 142.05,426.36 v 227.21 c 0,75.77 0,284.09 -142.05,426 -141.9,141.95 -355.25,141.95 -497.15,141.95 H 3059 c -37.76,0 -85.21,0 -122.93,-37.72 -38.38,-37.91 -38.38,-85.12 -38.38,-123.12" /><path
         id="path16"
         style="fill:#e31d25;fill-opacity:1;fill-rule:nonzero;stroke:none"
         d="m 2216.08,1363.38 h 568.09 L 2102.41,454.371 h -568.24 l 681.91,909.009" /><path
         id="path18"
         style="fill:#e31d25;fill-opacity:1;fill-rule:nonzero;stroke:none"
         d="m 0,1202.84 c 0,37.71 0,85.06 37.8594,123.02 37.957,37.52 85.1136,37.52 123.1636,37.52 h 951.757 c 123.03,0 213.16,0 288.79,-37.52 75.82,-37.96 132.6,-113.77 189.72,-189.39 l 56.56,-76.01 c 40.26,-53.69 71.12,-94.647 71.12,-151.347 0,-56.883 -32.89,-100.851 -71.12,-151.672 L 1420.59,454.371 H 852.23 l 369.39,492.567 c 28.56,37.703 61.67,85.102 38.05,137.442 -23.86,52.09 -85.31,52.09 -132.94,52.09 H 681.949 V 0 H 227.344 V 1136.47 H 0 v 66.37" /></g></g></svg>