<?xml version="1.0" encoding="UTF-8"?>
<!DOCTYPE svg PUBLIC "-//W3C//DTD SVG 1.1//EN" "http://www.w3.org/Graphics/SVG/1.1/DTD/svg11.dtd">
<!-- Creator: CorelDRAW 2017 -->
<svg xmlns="http://www.w3.org/2000/svg" xml:space="preserve" width="60mm" height="60mm" version="1.1" style="shape-rendering:geometricPrecision; text-rendering:geometricPrecision; image-rendering:optimizeQuality; fill-rule:evenodd; clip-rule:evenodd"
viewBox="0 0 6000 6000"
 xmlns:xlink="http://www.w3.org/1999/xlink">
 <defs>
  <style type="text/css">
   <![CDATA[
    .fil0 {fill:#E82627}
   ]]>
  </style>
 </defs>
 <g id="Слой_x0020_1">
  <metadata id="CorelCorpID_0Corel-Layer"/>
  <path class="fil0" d="M454 4604l-6 -12 0 -16 -1 -3 -4 -35 1 -11c7,-72 5,-139 27,-210 19,-58 45,-108 74,-161l9 -17 15 -13c7,-6 13,-13 19,-20 17,-22 33,-41 54,-59 40,-35 87,-63 133,-88 21,-11 38,-15 58,-24l23 -19 191 -20 1164 0 57 0 -140 -578c-7,-27 -18,-106 -33,-128l-15 -22 -3 -26c-6,-54 -20,-115 -32,-168 -9,-39 -18,-77 -29,-115 -2,-7 -4,-15 -6,-23l-133 34c-27,7 -96,19 -118,33l-23 16 -28 2c-43,3 -108,21 -148,37l-12 5 -13 2c-53,7 -106,25 -158,38 -29,8 -102,19 -126,35l-23 16 -27 2c-43,4 -111,22 -150,38l-11 4 -12 2c-26,4 -52,11 -77,18 -10,3 -21,5 -31,9 -6,2 -13,5 -19,7l-18 11 -23 3c-50,6 -107,23 -156,36 -57,15 -114,31 -171,48l-117 34 -13 0c-75,2 -152,-10 -207,-66 -59,-60 -76,-155 -89,-236 -2,-13 -4,-29 -7,-42 -2,-7 -3,-15 -5,-22l-14 -22 2 -33c2,-40 -4,-85 -11,-125l-1 -8 -6 -232 12 -200 21 -100c7,-72 27,-141 46,-211 14,-50 43,-113 50,-163l4 -26 16 -21c20,-28 42,-84 51,-117l5 -17 10 -14c27,-39 46,-89 71,-130 27,-45 54,-90 84,-133l1 -2 201 -258 13 -6 2 -7 24 -20c20,-17 38,-37 56,-55 14,-14 26,-28 40,-42 10,-9 21,-18 32,-26l19 -14 1 -3 29 -22c18,-14 35,-29 52,-43 29,-24 60,-42 91,-63 54,-37 117,-66 168,-105l10 -7 236 -106c-21,-89 -56,-180 -35,-273 8,-34 23,-66 45,-93 54,-66 146,-90 228,-76 43,7 80,22 112,52 20,19 32,39 48,60l12 16 52 186c66,-13 134,-20 201,-23 145,-5 291,8 435,30 51,8 101,17 152,25 19,3 38,8 57,10l27 3 22 15c28,19 95,32 128,40l15 3 13 8c22,13 50,23 74,32 28,12 55,23 83,35 58,26 111,59 168,85l12 5 10 8c10,8 21,15 31,22 25,17 51,34 76,52 71,49 141,100 207,155 34,28 67,58 99,90 93,93 173,197 249,304 23,33 43,70 69,100l7 8 5 9c58,111 123,221 160,341 26,74 68,176 69,252 1,50 -18,108 -46,149 -16,24 -33,40 -59,53 -6,3 -14,7 -19,11l-23 20 -31 4c-15,2 -31,6 -46,9 -35,8 -70,17 -105,26 -35,9 -70,19 -104,29 -18,5 -37,10 -55,17l-12 5 -13 2c-31,4 -89,13 -115,30l-22 15 -27 2c-43,3 -110,22 -150,38l-11 5 -12 2c-53,8 -106,24 -158,38 -27,7 -53,15 -80,22 -5,1 -41,9 -45,12l-24 18 -30 2c-50,4 -111,24 -159,38 -27,8 -54,14 -81,21 -12,3 -27,6 -38,10 -3,1 -7,3 -10,4l-19 14 -27 3c-44,5 -93,18 -136,29 -31,8 -73,19 -109,31l28 119c8,30 15,60 22,90 3,12 5,29 9,40 1,4 3,8 4,12l14 19 2 31c3,50 20,109 34,157 15,53 31,106 40,161 7,30 18,102 32,124l16 25 1 30c1,41 22,94 29,138l57 241 130 -1 1016 0 77 0c17,-24 30,-49 43,-77l5 -11 8 -10c17,-21 34,-53 48,-76 33,-54 64,-109 96,-164 30,-53 60,-107 90,-160 15,-28 32,-56 45,-85l5 -11 7 -10c12,-16 23,-35 33,-52 21,-35 42,-69 62,-104 20,-35 40,-70 60,-106 9,-17 20,-36 28,-54l5 -13 9 -11c15,-20 29,-40 42,-62 51,-86 88,-176 147,-258l1 -15 33 -28c18,-15 34,-35 51,-52 32,-31 50,-43 88,-65 29,-17 61,-27 93,-39 27,-10 59,-19 85,-32l22 -11 213 0 21 16c7,2 14,4 20,6 43,15 126,39 158,65 9,7 17,16 26,23 20,16 41,31 62,45l11 8 9 10c15,17 30,36 45,52l11 12 7 14c18,38 40,84 64,118l19 27 0 33c0,16 2,32 4,48 12,86 24,146 6,235 -10,50 -29,93 -52,137 -15,28 -31,56 -43,86l-5 13 -8 11c-11,15 -21,34 -30,50 -19,35 -38,70 -56,105 -18,34 -35,69 -52,103 -9,19 -19,39 -27,59l-3 7 -30 55 -7 8c-5,6 -19,23 -23,32 3,12 20,42 24,50 19,39 41,105 67,138l7 9 173 366c49,104 101,208 150,312 14,31 31,60 47,90 14,26 27,52 35,81 17,64 1,130 -22,190l-7 20 -14 15c-29,31 -50,39 -82,60l-25 17 -30 1c-1,0 -3,0 -4,0l-17 12 -760 -5 202 381 3 8c25,73 34,94 22,175l-1 5 -1 5c-41,158 -223,229 -360,140 -85,-55 -142,-201 -186,-289l-181 -340 -43 -84 -1360 -1c37,137 75,274 98,414l1 3 15 150 -10 24c-22,53 -36,70 -77,110l-17 17 -23 8c-54,18 -101,28 -158,20l-5 -1 -5 -1c-54,-13 -99,-38 -132,-84 -27,-38 -39,-82 -50,-126 -10,-40 -19,-82 -34,-120l-4 -12 -2 -12c-4,-27 -10,-53 -16,-80 -2,-8 -7,-39 -12,-46l-16 -22 -3 -27c-4,-43 -26,-152 -46,-212l-957 -3c-4,0 -8,1 -12,2l-136 252c-27,54 -56,106 -84,160 -24,45 -58,105 -73,154l-8 24 -18 18c-15,16 -29,41 -43,59 -30,37 -67,61 -113,73 -97,26 -192,-4 -254,-82 -81,-101 -49,-208 3,-311 21,-41 49,-86 63,-129l3 -8 113 -212 -60 0 -152 -34 -4 -1c-98,-30 -171,-82 -239,-157 -73,-81 -89,-131 -130,-226l-5 -12 -2 -13c-3,-21 -4,-41 -7,-62 -1,-5 -1,-10 -2,-15zm2772 -2592c73,-21 228,-45 288,-81l23 -14 27 -1c26,-1 82,-11 123,-25l-34 -70 -2 -7c-69,-215 -345,-488 -527,-617 -62,-43 -155,-110 -227,-131l-15 -4 -13 -9c-63,-42 -260,-105 -336,-115l-2 0 -165 -29 -141 -10 -129 6 -223 24c-71,18 -240,47 -289,87l-20 16 -25 5c-77,16 -187,91 -254,134 -55,36 -174,112 -209,167l-17 26 -28 13c-17,8 -30,29 -42,43 -12,15 -39,38 -48,53l-7 12 -9 10c-23,24 -45,55 -64,82 -34,48 -66,97 -97,147 -35,58 -99,168 -108,234l-4 28 -18 22c-19,25 -33,106 -42,136l0 1c-54,185 -55,391 -36,584 18,-5 36,-9 54,-14 12,-3 27,-6 38,-11 4,-2 9,-3 13,-5l19 -14 29 -2c51,-4 112,-24 161,-38 57,-17 113,-36 171,-46 28,-7 93,-18 114,-32l25 -17 30 -1c23,-1 45,-7 67,-13 35,-11 67,-21 103,-27 54,-15 109,-25 163,-39 35,-9 92,-24 123,-42l21 -13 25 -2c43,-3 110,-22 150,-38l12 -5 13 -2c30,-4 90,-13 115,-29l22 -15 26 -2c49,-4 111,-23 159,-36 57,-15 114,-31 170,-47l0 0c27,-8 55,-14 82,-21 10,-2 39,-7 47,-13l22 -16 27 -3c50,-5 108,-23 157,-35 57,-15 114,-30 170,-49l2 -1 147 -42 194 -47zm2071 978c12,-98 -105,-155 -181,-94 -27,21 -68,107 -86,138 -57,100 -127,200 -170,306l-5 12 -8 10c-34,45 -65,102 -94,151 -30,52 -65,111 -90,166l-5 12 -8 10c-35,44 -65,101 -93,150 -28,50 -60,102 -82,154l-5 11 -7 10c-32,44 -56,95 -83,142 -15,27 -30,54 -47,80 -14,22 -31,37 -44,57l-20 30 -35 11c-59,19 -87,25 -150,26 -206,1 -411,-2 -617,-3 -145,-1 -290,-1 -434,0 -50,0 -100,1 -149,3 -2,0 -4,0 -6,0 6,43 18,89 29,130 12,49 26,97 39,146 0,0 0,0 1,0l1475 0 91 -160c29,-54 58,-107 86,-161 23,-44 58,-105 72,-152l6 -20 13 -16c31,-37 63,-99 85,-142 30,-57 59,-114 86,-173l1 -1 1 -1c30,-60 61,-119 94,-178 29,-52 62,-108 84,-164l2 -5 252 -485zm-4367 1466c-7,53 -10,129 36,165 42,33 145,24 198,28l1292 3 -68 -280c-405,12 -809,0 -1214,0 -48,0 -146,-6 -190,14 -28,13 -43,43 -53,70zm4224 -151l-181 342 347 -1 -166 -342z"/>
 </g>
</svg>
