<svg width="220" height="184" viewBox="0 0 220 184" fill="none" xmlns="http://www.w3.org/2000/svg">
<path d="M45.3483 161.014C49.2416 155.604 53.5997 151.663 57.2666 149.554C60.3497 147.782 61.7813 147.868 62.1615 147.922C62.3331 148.265 62.87 149.595 62.1685 153.082C61.3342 157.228 58.982 162.613 55.0887 168.023C51.1954 173.434 46.8373 177.375 43.1704 179.483C40.0873 181.256 38.6557 181.17 38.2755 181.116C38.1039 180.773 37.567 179.443 38.2685 175.956C39.1028 171.809 41.455 166.425 45.3483 161.014Z" stroke="#FF1616" stroke-width="12"/>
<path d="M27.8807 90.4169C34.5241 90.9609 40.1485 92.6612 43.8465 94.7148C46.9557 96.4413 47.62 97.7124 47.7703 98.0657C47.5646 98.3899 46.7022 99.536 43.3536 100.734C39.3708 102.158 33.5447 102.921 26.9013 102.377C20.2578 101.833 14.6334 100.133 10.9355 98.079C7.82631 96.3525 7.16194 95.0814 7.01171 94.728C7.21742 94.4039 8.07972 93.2578 11.4284 92.0601C15.4112 90.6355 21.2372 89.8729 27.8807 90.4169Z" stroke="#FF1616" stroke-width="12"/>
<path d="M45.818 53.2939C51.4335 56.8852 55.6072 61.0211 57.9133 64.567C59.8522 67.5484 59.8441 68.9826 59.8114 69.3652C59.4779 69.5553 58.1793 70.1643 54.6596 69.6547C50.4734 69.0486 44.9683 66.9946 39.3528 63.4034C33.7372 59.8121 29.5636 55.6762 27.2575 52.1303C25.3186 49.1489 25.3267 47.7147 25.3594 47.3321C25.6929 47.142 26.9915 46.5331 30.5112 47.0426C34.6974 47.6487 40.2025 49.7027 45.818 53.2939Z" stroke="#FF1616" stroke-width="12"/>
<path d="M30.6183 124.385C36.692 121.639 42.4352 120.398 46.6651 120.4C50.2215 120.402 51.419 121.192 51.7217 121.428C51.6991 121.811 51.5008 123.232 49.1532 125.903C46.3612 129.081 41.6361 132.573 35.5625 135.32C29.4888 138.066 23.7456 139.307 19.5157 139.304C15.9593 139.303 14.7618 138.513 14.4591 138.277C14.4817 137.894 14.68 136.473 17.0276 133.802C19.8196 130.624 24.5447 127.132 30.6183 124.385Z" stroke="#FF1616" stroke-width="12"/>
<path d="M78.7329 31.2235C81.8551 37.1127 83.4542 42.7667 83.7175 46.9883C83.9389 50.5379 83.2263 51.7825 83.0097 52.0995C82.6257 52.101 81.1956 51.9923 78.3819 49.8171C75.0354 47.2301 71.253 42.7336 68.1307 36.8444C65.0084 30.9552 63.4094 25.3012 63.1461 21.0796C62.9247 17.53 63.6373 16.2854 63.8539 15.9684C64.2379 15.9669 65.668 16.0756 68.4817 18.2508C71.8282 20.8378 75.6106 25.3343 78.7329 31.2235Z" stroke="#FF1616" stroke-width="12"/>
<path d="M166.523 170.489C160.921 166.877 156.763 162.725 154.47 159.17C152.542 156.182 152.556 154.747 152.59 154.365C152.924 154.176 154.225 153.572 157.743 154.095C161.927 154.717 167.424 156.792 173.026 160.404C178.628 164.017 182.786 168.168 185.079 171.723C187.006 174.711 186.993 176.146 186.959 176.528C186.624 176.717 185.323 177.321 181.806 176.798C177.622 176.176 172.125 174.101 166.523 170.489Z" stroke="#FF1616" stroke-width="12"/>
<path d="M182.057 145.796C176.114 142.778 171.552 139.075 168.907 135.774C166.683 132.999 166.549 131.571 166.544 131.187C166.857 130.965 168.089 130.231 171.642 130.39C175.867 130.579 181.548 132.079 187.491 135.097C193.434 138.116 197.997 141.818 200.642 145.119C202.866 147.894 203 149.322 203.005 149.706C202.692 149.928 201.46 150.663 197.907 150.503C193.682 150.314 188 148.815 182.057 145.796Z" stroke="#FF1616" stroke-width="12"/>
<path d="M132.189 188.917C128.93 183.102 127.2 177.487 126.838 173.272C126.535 169.729 127.218 168.468 127.427 168.146C127.811 168.136 129.243 168.211 132.107 170.32C135.513 172.829 139.399 177.236 142.657 183.051C145.916 188.866 147.646 194.481 148.007 198.695C148.311 202.239 147.628 203.5 147.419 203.822C147.035 203.832 145.603 203.757 142.739 201.648C139.333 199.139 135.447 194.732 132.189 188.917Z" stroke="#FF1616" stroke-width="12"/>
<path d="M83.3395 184.844C85.226 178.451 88.0368 173.291 90.8008 170.09C93.1248 167.397 94.5045 167.006 94.8811 166.931C95.1565 167.198 96.1028 168.276 96.593 171.799C97.176 175.988 96.7354 181.847 94.8489 188.241C92.9624 194.634 90.1516 199.794 87.3876 202.995C85.0636 205.688 83.6838 206.079 83.3073 206.154C83.0318 205.887 82.0856 204.809 81.5954 201.286C81.0124 197.097 81.453 191.238 83.3395 184.844Z" stroke="#FF1616" stroke-width="12"/>
<path d="M159.594 41.9046C156.361 47.7339 152.494 52.1581 149.1 54.6815C146.245 56.8032 144.813 56.8849 144.43 56.8762C144.219 56.5552 143.53 55.2973 143.818 51.7526C144.161 47.5366 145.867 41.9138 149.1 36.0846C152.333 30.2554 156.199 25.8311 159.594 23.3077C162.448 21.186 163.88 21.1043 164.264 21.113C164.474 21.434 165.163 22.6919 164.875 26.2367C164.532 30.4526 162.827 36.0754 159.594 41.9046Z" stroke="#FF1616" stroke-width="12"/>
<path d="M186.029 73.5439C180.443 77.181 174.955 79.2799 170.774 79.9202C167.258 80.4585 165.955 79.8602 165.62 79.6728C165.584 79.2905 165.564 77.8564 167.479 74.8593C169.756 71.2946 173.895 67.1247 179.481 63.4877C185.067 59.8506 190.555 57.7516 194.736 57.1114C198.252 56.573 199.555 57.1713 199.891 57.3587C199.926 57.741 199.946 59.1751 198.032 62.1722C195.755 65.7369 191.615 69.9068 186.029 73.5439Z" stroke="#FF1616" stroke-width="12"/>
<path d="M119 26.5C119 33.1657 117.764 38.9101 116.02 42.7633C114.552 46.003 113.34 46.7689 113 46.9475C112.66 46.7689 111.448 46.003 109.98 42.7633C108.236 38.9101 107 33.1657 107 26.5C107 19.8343 108.236 14.0899 109.98 10.2367C111.448 6.99696 112.66 6.23107 113 6.05251C113.34 6.23107 114.552 6.99696 116.02 10.2367C117.764 14.0899 119 19.8343 119 26.5Z" stroke="#FF1616" stroke-width="12"/>
<path d="M192.578 112.628C185.925 113.047 180.115 112.175 176.16 110.675C172.834 109.414 171.994 108.252 171.794 107.924C171.951 107.574 172.639 106.315 175.78 104.648C179.516 102.665 185.172 101.071 191.824 100.652C198.477 100.234 204.288 101.106 208.243 102.605C211.568 103.866 212.409 105.028 212.608 105.356C212.451 105.707 211.763 106.965 208.622 108.633C204.886 110.616 199.23 112.21 192.578 112.628Z" stroke="#FF1616" stroke-width="12"/>
<circle cx="110.5" cy="106.5" r="44.5" stroke="#FF1616" stroke-width="12"/>
</svg>
