<?xml version="1.0" encoding="UTF-8" standalone="no"?>
<!-- Generator: Adobe Illustrator 21.0.0, SVG Export Plug-In . SVG Version: 6.00 Build 0)  -->

<svg
   xmlns:dc="http://purl.org/dc/elements/1.1/"
   xmlns:cc="http://creativecommons.org/ns#"
   xmlns:rdf="http://www.w3.org/1999/02/22-rdf-syntax-ns#"
   xmlns:svg="http://www.w3.org/2000/svg"
   xmlns="http://www.w3.org/2000/svg"
   xmlns:sodipodi="http://sodipodi.sourceforge.net/DTD/sodipodi-0.dtd"
   xmlns:inkscape="http://www.inkscape.org/namespaces/inkscape"
   version="1.1"
   id="Слой_1"
   x="0px"
   y="0px"
   viewBox="0 0 56 56"
   style="enable-background:new 0 0 56 56;"
   xml:space="preserve"
   sodipodi:docname="tutu.svg"
   inkscape:version="0.92.4 (5da689c313, 2019-01-14)"><metadata
   id="metadata17"><rdf:RDF><cc:Work
       rdf:about=""><dc:format>image/svg+xml</dc:format><dc:type
         rdf:resource="http://purl.org/dc/dcmitype/StillImage" /><dc:title></dc:title></cc:Work></rdf:RDF></metadata><defs
   id="defs15" /><sodipodi:namedview
   pagecolor="#ffffff"
   bordercolor="#666666"
   borderopacity="1"
   objecttolerance="10"
   gridtolerance="10"
   guidetolerance="10"
   inkscape:pageopacity="0"
   inkscape:pageshadow="2"
   inkscape:window-width="1920"
   inkscape:window-height="1138"
   id="namedview13"
   showgrid="false"
   inkscape:zoom="4.2142857"
   inkscape:cx="28"
   inkscape:cy="28"
   inkscape:window-x="-8"
   inkscape:window-y="-8"
   inkscape:window-maximized="1"
   inkscape:current-layer="Слой_1" />
<style
   type="text/css"
   id="style2">
	.st0{fill:#DB2B2D;}
</style>
<path
   class="st0"
   d="M34.8,0C36,0.3,37,0.9,37.6,2.1c0.2,0.4,0.3,0.8,0.5,1.2c1,0.1,2,0.1,3,0.3c3.6,0.8,6,3.8,6,7.4  c0,10.6,0,21.1,0,31.7c0,3-1.5,5.3-4.3,6.9c0.2,0.1,0.4,0.2,0.6,0.3c1.6,1.3,3.1,2.6,4.7,3.9c0.9,0.8,0.9,1.6-0.1,2.2  c-0.2,0-0.4,0-0.6,0c-0.3-0.2-0.5-0.4-0.8-0.6c-1.6-1.3-3.1-2.5-4.6-3.9c-0.9-0.8-1.8-1.1-3.1-1.1c-6.3,0.1-12.5,0-18.8,0  c-1.3,0-2.7-0.1-4-0.1c-0.2,0-0.4,0.1-0.5,0.2c-0.8,0.6-1.6,1.3-2.4,2c-1.4,1.2-2.8,2.3-4.2,3.4c-0.2,0-0.4,0-0.6,0  c-1-0.7-1.1-1.4-0.1-2.2c1.5-1.3,3.1-2.6,4.6-3.9c0.1-0.1,0.3-0.2,0.4-0.4c-0.5-0.3-0.9-0.6-1.3-0.9C9.9,47.1,9,45.1,9,42.7  c0-10.6,0-21.1,0-31.7c0-4.2,3.2-7.4,7.5-7.6c0.5,0,1,0,1.4,0c0.3-0.7,0.6-1.3,1-1.9c0.6-0.8,1.5-1.2,2.4-1.5c0.5,0,0.9,0,1.4,0  c0,0,0.1,0.1,0.1,0.1c1.6,0.4,2.5,1.4,3,2.9c0,0.1,0.3,0.3,0.5,0.3c1.3,0,2.5,0,3.8,0c0.2,0,0.4-0.2,0.5-0.4c0.3-0.5,0.5-1,0.8-1.5  c0.6-0.8,1.4-1.1,2.3-1.4C33.9,0,34.4,0,34.8,0z M44.8,26.9c0-5.2,0-10.5,0-15.7c0-2.6-1.5-4.6-3.9-5.3c-0.9-0.2-1.8-0.2-2.8-0.3  c-0.4,0-0.5,0.1-0.7,0.4c-1.6,2.5-5,2.5-6.6,0c-0.2-0.3-0.4-0.4-0.7-0.4c-1.4,0-2.7,0-4.1,0c-0.4,0-0.7,0.1-0.9,0.5  c-1.4,2.2-4.7,2.4-6.2,0.3c-0.5-0.7-1-0.9-1.7-0.8c-0.2,0-0.3,0-0.5,0c-3.2,0.1-5.4,2.5-5.4,5.6c0,10.4,0,20.9,0,31.3  c0,0.5,0,1,0.2,1.5c0.6,2.5,2.8,4.1,5.6,4.1c7.4,0,14.7,0,22.1,0c3.2,0,5.8-2.3,5.8-5.8C44.7,37.2,44.8,32.1,44.8,26.9z M21.8,2.2  c-0.9,0-1.7,0.8-1.6,1.7c0,0.9,0.8,1.7,1.7,1.6c0.9,0,1.6-0.8,1.6-1.7C23.5,3,22.7,2.2,21.8,2.2z M34.2,2.2c-0.9,0-1.7,0.8-1.7,1.6  c0,1,0.8,1.7,1.7,1.7c0.9,0,1.6-0.7,1.6-1.7C35.8,3,35.1,2.2,34.2,2.2z"
   id="path4"
   style="stroke:#db2b2d;stroke-opacity:1" />
<path
   class="st0"
   d="M19.1,14.6c0-0.8,0-1.5,0-2.2c0-1.3,0.8-2.2,2.2-2.3c0.2,0,0.4,0,0.6,0c4.2,0,8.3,0,12.5,0  c1.9,0,2.7,0.8,2.7,2.7c0,0.6,0,1.1,0,1.8c0.7,0,1.4,0,2,0c2.3,0,3.6,1.3,3.6,3.6c0,2.8,0,5.7,0,8.5c0,2.2-1.3,3.5-3.6,3.5  c-7.4,0-14.7,0-22.1,0c-2.2,0-3.5-1.4-3.5-3.5c0-2.9,0-5.7,0-8.6c0-2.2,1.3-3.5,3.5-3.5C17.6,14.6,18.3,14.6,19.1,14.6z M28,16.8  c-3.7,0-7.3,0-11,0c-1.1,0-1.4,0.3-1.4,1.4c0,2.8,0,5.7,0,8.5c0,1,0.3,1.3,1.3,1.3c7.3,0,14.6,0,22,0c1,0,1.3-0.3,1.3-1.3  c0-2.8,0-5.6,0-8.4c0-1.2-0.3-1.5-1.5-1.5C35.2,16.8,31.6,16.8,28,16.8z M34.7,12.4c-4.5,0-8.9,0-13.4,0c0,0.7,0,1.4,0,2.1  c4.5,0,8.9,0,13.4,0c0-0.3,0-0.5,0-0.8C34.7,13.3,34.7,12.8,34.7,12.4z"
   id="path6"
   style="stroke:#db2b2d;stroke-opacity:1" />
<path
   class="st0"
   d="M13.4,40.2c0.1-2.5,2.1-4.5,4.6-4.4c2.5,0.1,4.5,2.2,4.4,4.6c-0.1,2.5-2.1,4.4-4.6,4.4  C15.3,44.7,13.4,42.7,13.4,40.2z M15.7,40.3c0,1.3,1,2.2,2.2,2.2c1.2,0,2.2-1,2.2-2.2c0-1.2-1-2.3-2.2-2.3  C16.7,38.1,15.7,39.1,15.7,40.3z"
   id="path8"
   style="stroke:#db2b2d;stroke-opacity:1" />
<path
   class="st0"
   d="M42.6,40.4c-0.1,2.5-2.1,4.5-4.6,4.4c-2.5-0.1-4.5-2.1-4.4-4.6c0.1-2.4,2.1-4.4,4.6-4.4  C40.6,35.9,42.6,37.9,42.6,40.4z M40.3,40.3c0-1.2-1-2.3-2.2-2.3c-1.2,0-2.3,1-2.3,2.3c0,1.2,1,2.2,2.2,2.2  C39.3,42.6,40.3,41.6,40.3,40.3z"
   id="path10"
   style="stroke:#db2b2d;stroke-opacity:1" />
</svg>